<svg xmlns="http://www.w3.org/2000/svg" viewBox="0 0 1800 1800" role="img" aria-labelledby="title description">
  <title id="title">图2-8 ESG评级结果</title>
  <desc id="description">220千伏岩乐输变电工程项目的ESG评级结果：十项指标雷达图、专项评价和总体评价得分，以及A等级结果。</desc>
  <defs><style>.bg{fill:#fbfaf6}.grid{stroke:#8aa9a0;stroke-width:2;fill:none}.axis{stroke:#1d6e61;stroke-width:3}.area{fill:#d7ebe3;fill-opacity:.65;stroke:#1d6e61;stroke-width:5}.tag{fill:#176b5c}.label{font-family:'Noto Sans SC','Microsoft YaHei',sans-serif;font-size:29px;font-weight:800;fill:#172d29}.value{font-family:'Noto Sans SC','Microsoft YaHei',sans-serif;font-size:25px;font-weight:800;fill:#76501e}.small{font-family:'Noto Sans SC','Microsoft YaHei',sans-serif;font-size:24px;font-weight:700;fill:#172d29}.bar{fill:#176b5c}.head{font-family:'Noto Serif SC','Songti SC',serif;font-size:42px;font-weight:800;fill:#172d29}.white{font-family:'Noto Sans SC','Microsoft YaHei',sans-serif;font-size:100px;font-weight:800;fill:#fff}</style></defs>
  <rect class="bg" width="1800" height="1800"/>
  <text x="900" y="65" text-anchor="middle" class="head">ESG评级结果</text>
  <g transform="translate(900 390)" aria-label="十项指标雷达图">
    <g class="grid"><polygon points="0,-270 159,-219 257,-83 257,83 159,219 0,270 -159,219 -257,83 -257,-83 -159,-219"/><polygon points="0,-243 143,-197 231,-75 231,75 143,197 0,243 -143,197 -231,75 -231,-75 -143,-197"/><polygon points="0,-216 127,-175 205,-66 205,66 127,175 0,216 -127,175 -205,66 -205,-66 -127,-175"/><polygon points="0,-189 111,-153 180,-58 180,58 111,153 0,189 -111,153 -180,58 -180,-58 -111,-153"/><polygon points="0,-162 95,-131 154,-50 154,50 95,131 0,162 -95,131 -154,50 -154,-50 -95,-131"/><polygon points="0,-135 79,-109 128,-41 128,41 79,109 0,135 -79,109 -128,41 -128,-41 -79,-109"/><polygon points="0,-108 63,-87 103,-33 103,33 63,87 0,108 -63,87 -103,33 -103,-33 -63,-87"/><polygon points="0,-81 48,-66 77,-25 77,25 48,66 0,81 -48,66 -77,25 -77,-25 -48,-66"/><polygon points="0,-54 32,-44 51,-17 51,17 32,44 0,54 -32,44 -51,17 -51,-17 -32,-44"/><polygon points="0,-27 16,-22 26,-8 26,8 16,22 0,27 -16,22 -26,8 -26,-8 -16,-22"/></g>
    <g class="axis"><line x1="0" y1="0" x2="0" y2="-270"/><line x1="0" y1="0" x2="159" y2="-219"/><line x1="0" y1="0" x2="257" y2="-83"/><line x1="0" y1="0" x2="257" y2="83"/><line x1="0" y1="0" x2="159" y2="219"/><line x1="0" y1="0" x2="0" y2="270"/><line x1="0" y1="0" x2="-159" y2="219"/><line x1="0" y1="0" x2="-257" y2="83"/><line x1="0" y1="0" x2="-257" y2="-83"/><line x1="0" y1="0" x2="-159" y2="-219"/></g>
    <polygon class="area" points="0,-260 153,-211 226,-73 245,80 151,208 0,220 -159,219 -248,80 -253,-82 -159,-219"/>
    <text x="-38" y="-30" class="small">0.00%</text><text x="-38" y="-58" class="small">10.00%</text><text x="-38" y="-86" class="small">20.00%</text><text x="-38" y="-114" class="small">30.00%</text><text x="-38" y="-142" class="small">40.00%</text><text x="-38" y="-170" class="small">50.00%</text><text x="-38" y="-198" class="small">60.00%</text><text x="-38" y="-226" class="small">70.00%</text><text x="-38" y="-254" class="small">80.00%</text><text x="-38" y="-282" class="small">90.00%</text><text x="-38" y="-310" class="small">100.00%</text>
  </g>
  <g aria-label="雷达图指标标签"><g class="tag"><rect x="800" y="90" width="200" height="54" rx="8"/><rect x="1180" y="180" width="200" height="54" rx="8"/><rect x="1360" y="370" width="200" height="190" rx="8"/><rect x="1100" y="640" width="255" height="54" rx="8"/><rect x="760" y="710" width="275" height="85" rx="8"/><rect x="280" y="640" width="200" height="54" rx="8"/><rect x="130" y="430" width="200" height="54" rx="8"/><rect x="150" y="285" width="200" height="54" rx="8"/><rect x="330" y="165" width="200" height="54" rx="8"/><rect x="570" y="95" width="200" height="54" rx="8"/></g><g fill="#fff" class="label"><text x="900" y="127" text-anchor="middle">资源消耗</text><text x="1280" y="217" text-anchor="middle">污染防治</text><text x="1460" y="421" text-anchor="middle">气候变化</text><text x="1460" y="468" text-anchor="middle">88.03%</text><text x="1228" y="677" text-anchor="middle">利益相关方参与</text><text x="897" y="750" text-anchor="middle">产业工人权益</text><text x="897" y="783" text-anchor="middle">及保障</text><text x="380" y="677" text-anchor="middle">社会响应</text><text x="230" y="467" text-anchor="middle">治理结构</text><text x="250" y="322" text-anchor="middle">治理机制</text><text x="430" y="202" text-anchor="middle">治理效能</text><text x="670" y="132" text-anchor="middle">质量与安全</text></g><g class="value"><text x="900" y="84" text-anchor="middle">96.36%</text><text x="1280" y="174" text-anchor="middle">96.45%</text><text x="1228" y="630" text-anchor="middle">95.22%</text><text x="897" y="690" text-anchor="middle">81.42%</text><text x="380" y="630" text-anchor="middle">100.00%</text><text x="230" y="420" text-anchor="middle">96.64%</text><text x="250" y="275" text-anchor="middle">98.45%</text><text x="430" y="155" text-anchor="middle">100.00%</text><text x="670" y="85" text-anchor="middle">95.25%</text></g></g>
  <g transform="translate(210 900)" aria-label="专项和总体评价"><text x="-70" y="260" class="label">专项评价</text><text x="-70" y="530" class="label">ESG评价</text><text x="-70" y="830" class="label">总评价</text><g class="small"><text x="250" y="0">新技术应用专项评价（绿色低碳技术部分）</text><text x="250" y="130">绿色施工专项评价</text><text x="250" y="260">气候变化</text><text x="250" y="390">污染防治</text><text x="250" y="520">资源消耗</text><text x="250" y="670">绿色低碳建设总体表现</text></g><g stroke="#8aa9a0" stroke-width="2"><line x1="520" y1="-35" x2="1460" y2="-35"/><line x1="520" y1="95" x2="1460" y2="95"/><line x1="520" y1="225" x2="1460" y2="225"/><line x1="520" y1="355" x2="1460" y2="355"/><line x1="520" y1="485" x2="1460" y2="485"/><line x1="520" y1="615" x2="1460" y2="615"/><line x1="520" y1="745" x2="1460" y2="745"/></g><g class="bar"><rect x="520" y="-10" width="940" height="55"/><rect x="520" y="120" width="940" height="55"/><rect x="520" y="250" width="828" height="55"/><rect x="520" y="380" width="907" height="55"/><rect x="520" y="510" width="906" height="55"/><rect x="520" y="660" width="905" height="55"/></g><g fill="#fff" class="small"><text x="970" y="27">100.00%</text><text x="970" y="157">100.00%</text><text x="920" y="287">88.03%</text><text x="970" y="417">96.45%</text><text x="970" y="547">96.36%</text><text x="970" y="697">96.30%</text></g><text x="510" y="810" class="small">得分率　0.00%　10.00%　20.00%　30.00%　40.00%　50.00%　60.00%　70.00%　80.00%　90.00%　100.00%</text></g>
  <g transform="translate(300 1660)" aria-label="项目等级结果"><text x="0" y="0" class="small">本项目ESG评级结果</text><circle cx="135" cy="130" r="100" class="tag"/><text x="135" y="163" text-anchor="middle" class="white">A</text><text x="350" y="150" class="head">95.3/100</text><rect x="0" y="260" width="450" height="60" fill="#fff" stroke="#172d29" stroke-width="3"/><rect x="0" y="260" width="112" height="60" class="tag"/><text x="56" y="302" text-anchor="middle" class="label" fill="#fff">A</text><text x="168" y="302" class="label">B</text><text x="280" y="302" class="label">C</text><text x="392" y="302" class="label">D</text><text x="720" y="80" class="small">220kV岩乐输变电工程项目ESG评级</text><text x="720" y="125" class="small">结果为A（95.3），评价工作程序完整、</text><text x="720" y="170" class="small">评价方法正确、选用评价标准适当、</text><text x="720" y="215" class="small">评价报告符合规范。</text></g>
</svg>
